# xmcd
#
# Track frame offsets:
#   150
#   16676
#   33096
#   47086
#   61337
#   75272
#   94107
#   111953
#   131253
#   146209
#   165873
#   185875
#   201314
#
# Disc length: 2934 seconds
#
# Revision: 0
# Processed by: cddbd v1.5.2PL0 Copyright (c) Steve Scherf et al.
# Submitted via: uFREEDB ActiveX Control 1.5
#
DISCID=a30b740d
DTITLE=WALTHER MORAIS E NILTON FERREIRA - PARA ORGULHO DO RIO GRANDE
DYEAR=2011
DGENRE=Country
TTITLE0=NOS VARZEDOS DA FRONTEIRA
TTITLE1=O PEAO DE ESTANCIA
TTITLE2=EM NOME DA ESPORA, DO MANGO E DO TENTO
TTITLE3=GAUCHO DE CORACAO
TTITLE4=NAO E GAUCHO QUEM NAO GOSTAR DE CAVALO
TTITLE5=MOCITO
TTITLE6=ZAINO DOS CINCO SALSOS
TTITLE7=DE TROPA, TEMPO E ESTANCIA
TTITLE8=PARA ORGULHO DO RIO GRANDE
TTITLE9=DE QUEM VIVE ENTRE OS CAVALOS
TTITLE10=NA PRESILHA DO LACO
TTITLE11=SAUDADE REIUNA
TTITLE12=PELOS
EXTD=
EXTT0=
EXTT1=
EXTT2=
EXTT3=
EXTT4=
EXTT5=
EXTT6=
EXTT7=
EXTT8=
EXTT9=
EXTT10=
EXTT11=
EXTT12=
PLAYORDER=
